<svg xmlns="http://www.w3.org/2000/svg" style="display: none;">
    <symbol id="sword" viewBox="0 0 927.969 927.969">
        <g>
            <g>
                <path d="M836.548,820.469c-14.5,12.4-24.7,29.799-24.601,49.4c0.5,22.398,14.2,44.6,35,53.5c7.2,3.1,15,4.6,22.801,4.6
                c32.1,0,58.199-26,58.199-58.201c0-32.199-26-58.199-58.199-58.199c-1.4,0-2.801,0.1-4.101,0.199l-96.8-96.799l56.3-56.301
                c6.2-6.199,6.2-16.4,0-22.6l-22.3-22.199c-6.2-6.201-16.4-6.201-22.6,0l-166.5,166.6c-6.2,6.199-6.2,16.4,0,22.6l22.3,22.301
                c6.2,6.199,16.399,6.199,22.6,0l56.3-56.301l79.4,79.4c0.1-0.1,0.1-0.201,0.2-0.301c0.7-1,1.399-2.1,2.1-3.1
                c3-4,6.101-7.6,9.4-10.699c5.8-5.4,12.5-10.301,19.8-13.701c4.8-2.5,10-4.5,15.2-6c3.7-1.1,5.899-1.5,5.899-1.5
                s-1.899,1.1-5,3.301C840.048,817.668,838.248,819.068,836.548,820.469z"/>
                <path d="M64.448,285.369c2.7,11.2,9.2,21.2,18.4,28.2l531.4,402.5l36-36l-430.2-458.8l458.8,430.2l37.2-37.201L316.447,80.668
                c-7.1-9.5-17.3-16.1-28.899-18.8l-269.1-61.5c-10.9-2.4-20.6,7.3-18,18.2L64.448,285.369z"/>
            </g>
        </g>
    </symbol>

    <symbol id="coins" viewBox="0 0 512 512">
        <g>
            <path d="M442.656,150.156v0.031C446.031,143.063,448,135.625,448,128V96c0-53-85.969-96-192-96S64,43,64,96
                c0-2.625,0.375-5.188,0.781-7.75C25.125,105.813,0,131.438,0,160v32c0,29.688,27,56.219,69.344,73.812l0,0
                C65.969,272.938,64,280.375,64,288v32c0,11.25,4.063,21.969,11.188,32C68.063,362.031,64,372.75,64,384v32c0,53,85.969,96,192,96
                s192-43,192-96v-32c0-11.438-4.219-22.344-11.531-32.5c-0.062,0.062-0.125,0.156-0.188,0.219
                c5.375-7.625,9.594-15.562,10.938-23.969C486.875,310.156,512,284.562,512,256v-32C512,194.313,485,167.75,442.656,150.156z
                 M256,16c103.719,0,176,42.156,176,80c0,37.813-72.281,80-176,80S80,133.813,80,96C80,58.156,152.281,16,256,16z M16,160
                c0-18.688,17.719-38.344,48-53.531V128c0,53,85.969,96,192,96c15.844,0,31.156-1.063,45.875-2.875
                C272.531,232.406,235.25,240,192,240C88.281,240,16,197.813,16,160z M432,384c0,37.812-72.281,80-176,80S80,421.812,80,384
                c0-6.281,2.688-12.656,6.469-18.969c-0.031-0.031-0.094-0.094-0.125-0.156C118.563,395.281,182.438,416,256,416
                c73.656,0,137.219-20.875,169.375-51.344c-0.031,0.031-0.031,0.031-0.062,0.062C429.25,371.125,432,377.594,432,384z
                 M365.938,349.125C336.562,360.438,299.281,368,256,368c-103.719,0-176-42.188-176-80c0-5.438,1.875-10.938,4.719-16.375
                c15.688,5.281,33.031,9.438,51.563,12.219C160.156,323.281,233.344,352,320,352c15.906,0,31.281-1.062,46.062-2.906
                C366.031,349.094,366,349.125,365.938,349.125z M320,304c-41.062,0-76.875-6.75-105.563-17.094
                c90.219-5.313,161.469-41.531,168.781-87.156c21.781-9.656,39.22-21.688,50.438-35.375c-0.031,0-0.031,0-0.031,0
                C472.375,180.125,496,202.625,496,224C496,261.812,423.719,304,320,304z M290.188,119.313c0-3.375-2.688-5.969-8.062-7.688
                c-5.375-1.75-17.344-4-35.875-6.688c-16.656-2.344-29.688-4.688-39.063-7s-17-5.563-22.844-9.688
                c-5.844-4.188-8.781-9.063-8.781-14.563c0-7.25,5.25-13.813,15.688-19.625c10.438-5.781,26.875-9.313,49.313-10.625V32h30.313
                v11.438c33.875,1.688,55.813,9.5,65.781,23.563l-41.75,7c-8.156-9.625-20.72-14.438-37.781-14.438
                c-8.563,0-15.438,1.063-20.594,3.25c-5.188,2.125-7.781,4.75-7.781,7.813c0,3.125,2.5,5.5,7.5,7.188
                c4.969,1.656,15.688,3.688,32.063,6.188c18,2.688,32.125,5.219,42.344,7.625c10.25,2.375,18.406,5.688,24.531,9.906
                c6.094,4.219,9.155,9.156,9.155,14.781c0,8.688-6.312,15.875-18.905,21.656c-12.594,5.781-30.781,9.188-54.563,10.219V163h-30.313
                v-14.75c-39.656-1.656-64.188-11.125-73.656-28.313l46.875-5c4.344,10.813,18.719,16.219,43.125,16.219
                c11.405,0,19.844-1.156,25.219-3.469S290.188,122.594,290.188,119.313z"/>
        </g>
    </symbol>

    <symbol id="clock" viewBox="0 0 97.16 97.16">
        <g>
            <path d="M48.58,0C21.793,0,0,21.793,0,48.58s21.793,48.58,48.58,48.58s48.58-21.793,48.58-48.58S75.367,0,48.58,0z M48.58,86.823
                c-21.087,0-38.244-17.155-38.244-38.243S27.493,10.337,48.58,10.337S86.824,27.492,86.824,48.58S69.667,86.823,48.58,86.823z"/>
            <path d="M73.898,47.08H52.066V20.83c0-2.209-1.791-4-4-4c-2.209,0-4,1.791-4,4v30.25c0,2.209,1.791,4,4,4h25.832
                c2.209,0,4-1.791,4-4S76.107,47.08,73.898,47.08z"/>
        </g>
    </symbol>
</svg>
